HIERARCHY
ROOT Hips
{
    OFFSET   0.000000   0.000000   0.000000
    CHANNELS 6 Xposition Yposition Zposition Zrotation Xrotation Yrotation
    JOINT Chest
    {
        OFFSET   0.000000   8.007230   0.000000
        CHANNELS 3 Zrotation Xrotation Yrotation
        JOINT Chest2
        {
            OFFSET   0.000000  22.077100   0.000000
            CHANNELS 3 Zrotation Xrotation Yrotation
            JOINT Neck
            {
                OFFSET   0.000000  23.255100   0.000000
                CHANNELS 3 Zrotation Xrotation Yrotation
                JOINT Head
                {
                    OFFSET   0.000000  14.370100   1.956600
                    CHANNELS 3 Zrotation Xrotation Yrotation
                    End Site
                    {
                        OFFSET   0.000000  19.566000   0.000000
                    }
                }
            }
            JOINT LeftCollar
            {
                OFFSET   3.911900  19.017000  -0.467063
                CHANNELS 3 Zrotation Xrotation Yrotation
                JOINT LeftShoulder
                {
                    OFFSET  10.383700   0.000000   0.000000
                    CHANNELS 3 Zrotation Xrotation Yrotation
                    JOINT LeftElbow
                    {
                        OFFSET  26.662100   0.001193   0.000980
                        CHANNELS 3 Zrotation Xrotation Yrotation
                        JOINT LeftWrist
                        {
                            OFFSET  28.869000  -0.000059  -0.000082
                            CHANNELS 3 Zrotation Xrotation Yrotation
                            JOINT LeftFinger0
                            {
                                OFFSET   2.044650  -2.323450   3.252850
                                CHANNELS 3 Zrotation Xrotation Yrotation
                                JOINT LeftFinger01
                                {
                                    OFFSET   3.088130   0.000000   0.000000
                                    CHANNELS 3 Zrotation Xrotation Yrotation
                                    JOINT LeftFinger02
                                    {
                                        OFFSET   2.639460   0.000000   0.000000
                                        CHANNELS 3 Zrotation Xrotation Yrotation
                                        End Site
                                        {
                                            OFFSET   2.582190   0.000000   0.000000
                                        }
                                    }
                                }
                            }
                            JOINT LeftFinger1
                            {
                                OFFSET   8.364480   0.000000   3.252850
                                CHANNELS 3 Zrotation Xrotation Yrotation
                                JOINT LeftFinger11
                                {
                                    OFFSET   4.646930   0.000000   0.000000
                                    CHANNELS 3 Zrotation Xrotation Yrotation
                                    JOINT LeftFinger12
                                    {
                                        OFFSET   2.323470   0.000000   0.000000
                                        CHANNELS 3 Zrotation Xrotation Yrotation
                                        End Site
                                        {
                                            OFFSET   2.273050   0.000000   0.000000
                                        }
                                    }
                                }
                            }
                            JOINT LeftFinger2
                            {
                                OFFSET   8.364490   0.000016   1.078090
                                CHANNELS 3 Zrotation Xrotation Yrotation
                                JOINT LeftFinger21
                                {
                                    OFFSET   5.111610   0.000000   0.000000
                                    CHANNELS 3 Zrotation Xrotation Yrotation
                                    JOINT LeftFinger22
                                    {
                                        OFFSET   2.788150   0.000016   0.000000
                                        CHANNELS 3 Zrotation Xrotation Yrotation
                                        End Site
                                        {
                                            OFFSET   2.727660   0.000000   0.000000
                                        }
                                    }
                                }
                            }
                            JOINT LeftFinger3
                            {
                                OFFSET   7.899780   0.000015  -1.078090
                                CHANNELS 3 Zrotation Xrotation Yrotation
                                JOINT LeftFinger31
                                {
                                    OFFSET   4.646930   0.000000   0.000000
                                    CHANNELS 3 Zrotation Xrotation Yrotation
                                    JOINT LeftFinger32
                                    {
                                        OFFSET   2.323470   0.000000   0.000000
                                        CHANNELS 3 Zrotation Xrotation Yrotation
                                        End Site
                                        {
                                            OFFSET   2.273050   0.000000   0.000000
                                        }
                                    }
                                }
                            }
                            JOINT LeftFinger4
                            {
                                OFFSET   7.435090   0.000000  -3.252850
                                CHANNELS 3 Zrotation Xrotation Yrotation
                                JOINT LeftFinger41
                                {
                                    OFFSET   3.717550   0.000000   0.000000
                                    CHANNELS 3 Zrotation Xrotation Yrotation
                                    JOINT LeftFinger42
                                    {
                                        OFFSET   1.858770   0.000000   0.000000
                                        CHANNELS 3 Zrotation Xrotation Yrotation
                                        End Site
                                        {
                                            OFFSET   1.818440   0.000000   0.000000
                                        }
                                    }
                                }
                            }
                        }
                    }
                }
            }
            JOINT RightCollar
            {
                OFFSET  -3.911910  19.017000  -0.467062
                CHANNELS 3 Zrotation Xrotation Yrotation
                JOINT RightShoulder
                {
                    OFFSET -10.383700   0.000014   0.000000
                    CHANNELS 3 Zrotation Xrotation Yrotation
                    JOINT RightElbow
                    {
                        OFFSET -26.662100   0.001225   0.001091
                        CHANNELS 3 Zrotation Xrotation Yrotation
                        JOINT RightWrist
                        {
                            OFFSET -28.869000  -0.000020  -0.000085
                            CHANNELS 3 Zrotation Xrotation Yrotation
                            JOINT RightFinger0
                            {
                                OFFSET  -2.044650  -2.323490   3.252850
                                CHANNELS 3 Zrotation Xrotation Yrotation
                                JOINT RightFinger01
                                {
                                    OFFSET  -3.088130   0.000000   0.000000
                                    CHANNELS 3 Zrotation Xrotation Yrotation
                                    JOINT RightFinger02
                                    {
                                        OFFSET  -2.639460   0.000000   0.000000
                                        CHANNELS 3 Zrotation Xrotation Yrotation
                                        End Site
                                        {
                                            OFFSET  -2.582190   0.000000   0.000000
                                        }
                                    }
                                }
                            }
                            JOINT RightFinger1
                            {
                                OFFSET  -8.364480   0.000000   3.252850
                                CHANNELS 3 Zrotation Xrotation Yrotation
                                JOINT RightFinger11
                                {
                                    OFFSET  -4.646930   0.000000   0.000000
                                    CHANNELS 3 Zrotation Xrotation Yrotation
                                    JOINT RightFinger12
                                    {
                                        OFFSET  -2.323470   0.000000   0.000000
                                        CHANNELS 3 Zrotation Xrotation Yrotation
                                        End Site
                                        {
                                            OFFSET  -2.273050   0.000000   0.000000
                                        }
                                    }
                                }
                            }
                            JOINT RightFinger2
                            {
                                OFFSET  -8.364480   0.000000   1.078090
                                CHANNELS 3 Zrotation Xrotation Yrotation
                                JOINT RightFinger21
                                {
                                    OFFSET  -5.111620   0.000000   0.000000
                                    CHANNELS 3 Zrotation Xrotation Yrotation
                                    JOINT RightFinger22
                                    {
                                        OFFSET  -2.788160   0.000000   0.000000
                                        CHANNELS 3 Zrotation Xrotation Yrotation
                                        End Site
                                        {
                                            OFFSET  -2.727660   0.000000   0.000000
                                        }
                                    }
                                }
                            }
                            JOINT RightFinger3
                            {
                                OFFSET  -7.899780   0.000000  -1.078090
                                CHANNELS 3 Zrotation Xrotation Yrotation
                                JOINT RightFinger31
                                {
                                    OFFSET  -4.646930   0.000000   0.000000
                                    CHANNELS 3 Zrotation Xrotation Yrotation
                                    JOINT RightFinger32
                                    {
                                        OFFSET  -2.323470   0.000000   0.000000
                                        CHANNELS 3 Zrotation Xrotation Yrotation
                                        End Site
                                        {
                                            OFFSET  -2.273050   0.000000   0.000000
                                        }
                                    }
                                }
                            }
                            JOINT RightFinger4
                            {
                                OFFSET  -7.435090   0.000000  -3.252850
                                CHANNELS 3 Zrotation Xrotation Yrotation
                                JOINT RightFinger41
                                {
                                    OFFSET  -3.717550   0.000000   0.000000
                                    CHANNELS 3 Zrotation Xrotation Yrotation
                                    JOINT RightFinger42
                                    {
                                        OFFSET  -1.858760   0.000000   0.000000
                                        CHANNELS 3 Zrotation Xrotation Yrotation
                                        End Site
                                        {
                                            OFFSET  -1.818440   0.000000   0.000000
                                        }
                                    }
                                }
                            }
                        }
                    }
                }
            }
        }
    }
    JOINT LeftHip
    {
        OFFSET   9.783030   0.000000   0.000000
        CHANNELS 3 Zrotation Xrotation Yrotation
        JOINT LeftKnee
        {
            OFFSET   0.000063 -41.789100   0.000608
            CHANNELS 3 Zrotation Xrotation Yrotation
            JOINT LeftAnkle
            {
                OFFSET   0.000048 -41.133200  -0.000184
                CHANNELS 3 Zrotation Xrotation Yrotation
                JOINT LeftToe
                {
                    OFFSET   0.000000  -6.358960  14.674500
                    CHANNELS 3 Zrotation Xrotation Yrotation
                    End Site
                    {
                        OFFSET   0.000000   0.000000   3.913200
                    }
                }
            }
        }
    }
    JOINT RightHip
    {
        OFFSET  -9.783030   0.000000   0.000000
        CHANNELS 3 Zrotation Xrotation Yrotation
        JOINT RightKnee
        {
            OFFSET   0.000071 -41.789100   0.001239
            CHANNELS 3 Zrotation Xrotation Yrotation
            JOINT RightAnkle
            {
                OFFSET   0.000037 -41.133200  -0.000166
                CHANNELS 3 Zrotation Xrotation Yrotation
                JOINT RightToe
                {
                    OFFSET   0.000000  -6.358960  14.674500
                    CHANNELS 3 Zrotation Xrotation Yrotation
                    End Site
                    {
                        OFFSET   0.000000   0.000000   3.913200
                    }
                }
            }
        }
    }
}
MOTION
Frames: 4
Frame Time:   0.016667
  0.148977  90.072900  -0.877927  -0.739881  -1.628980  -2.709430  -0.809347   2.448070  -0.667989  -1.592240   4.905200  -1.303060   2.705630  -0.578601   0.032264   4.446160  -1.165760   4.318190  -3.742560  -2.751890   5.957010 -71.272800  19.120600   0.456630  -2.988010  -3.448770 -14.978700  13.147700  -0.808782   9.833240  37.908100  18.686800 -56.756100 -21.551100   0.000114   0.001646  -5.775530   0.005183  -0.002009 -31.085700   9.502210 -15.296300 -26.481300  -0.000747  -0.004055 -18.536900   0.000130  -0.004954 -28.717600   1.834670  -3.343240 -41.264500  -0.001689  -0.005214 -27.482200   0.003569  -0.001995 -27.778700   1.779160  -3.373080 -30.962900  -0.002052  -0.007672 -20.621300   0.002308  -0.003788 -29.894900   1.250830  -2.196570 -44.878000  -0.003880  -0.007056 -29.888700   0.002816  -0.002512  11.956300   2.471430   5.825360  69.704200  10.324100  -1.970680   3.935150  -8.662630  11.455200 -13.826000 -18.334000   3.904580 -37.075600  30.547700  58.980700  33.798000   0.008805  -0.009323  11.899000   0.003401  -0.006571  29.644200   0.487036   0.854095  24.257400  -0.004799   0.005640  16.980100  -0.003237   0.004774  27.880800  -0.795596  -1.503900  31.281500  -0.008725   0.005976  20.833500  -0.003247   0.005135  27.859200  -3.300240  -6.215900  32.253600   0.002246  -0.001766  21.480900  -0.005876  -0.001661  39.019400  -4.442440  -5.460050  58.847200  -0.000517  -0.002076  39.192200  -0.000395  -0.001456   0.296035   2.471820   1.968300   0.815294   1.341140  10.974400  -5.824650  -4.089940   4.152740   0.000000   0.000000   0.000000   3.261470   1.687540  -7.224850  -1.383160   1.869290  -9.074460 -10.789700   0.934877   2.335790  -0.000000   0.000000   0.000000
  0.147433  90.072700  -0.870553  -0.740838  -1.646970  -2.722100  -0.814796   2.467710  -0.641900  -1.604440   4.944180  -1.250320   2.692390  -0.553126   0.032263   4.423820  -1.114410   4.349440  -3.750490  -2.760760   5.936310 -71.247900  19.164300   0.424967  -2.994280  -3.468930 -14.992400  13.144400  -0.812401   9.833690  37.905400  18.687000 -56.760500 -21.563300   0.000109   0.001654  -5.781640   0.005184  -0.002015 -31.117500   9.502600 -15.287600 -26.506100  -0.000747  -0.004059 -18.554300   0.000126  -0.004961 -28.718300   1.828550  -3.331960 -41.304500  -0.001687  -0.005207 -27.508800   0.003568  -0.001993 -27.786300   1.773600  -3.361510 -31.005400  -0.002050  -0.007670 -20.649600   0.002308  -0.003786 -29.931500   1.250840  -2.182580 -44.932900  -0.003883  -0.007054 -29.925200   0.002819  -0.002512  11.924900   2.401450   5.740780  69.774500  10.554000  -1.935760   3.932680  -8.682350  11.322000 -13.835200 -18.264800   3.862560 -37.071900  30.622200  59.109600  33.844400   0.008798  -0.009318  11.922200   0.003394  -0.006582  29.687100   0.487141   0.853517  24.292600  -0.004793   0.005626  17.004800  -0.003244   0.004762  27.881600  -0.789761  -1.492770  31.296700  -0.008701   0.005981  20.843700  -0.003257   0.005104  27.867900  -3.295030  -6.203940  32.308900   0.002264  -0.001790  21.517700  -0.005851  -0.001680  39.013000  -4.433610  -5.450560  58.836500  -0.000507  -0.002107  39.185000  -0.000405  -0.001469   0.295783   2.482580   1.968250   0.815313   1.341970  10.986800  -5.824920  -4.081610   4.154550  -0.000000   0.000000   0.000000   3.252730   1.715350  -7.233990  -1.373110   1.845920  -9.059680 -10.798700   0.943927   2.339840   0.000000   0.000000   0.000000
  0.143654  90.072500  -0.863180  -0.743148  -1.685700  -2.746820  -0.822338   2.507800  -0.600113  -1.620650   5.023850  -1.165770   2.668970  -0.527650   0.032257   4.385600  -1.063000   4.422060  -3.773130  -2.775500   5.907950 -71.194300  19.258500   0.365771  -3.008690  -3.514370 -15.027000  13.135300  -0.826848   9.836700  37.886600  18.695400 -56.776600 -21.591000   0.000090   0.001670  -5.795510   0.005188  -0.002024 -31.168900   9.503490 -15.267500 -26.546300  -0.000747  -0.004068 -18.582500   0.000106  -0.004974 -28.720200   1.811760  -3.301130 -41.370400  -0.001682  -0.005190 -27.552700   0.003565  -0.001986 -27.798000   1.757860  -3.330120 -31.068100  -0.002044  -0.007668 -20.691400   0.002308  -0.003777 -29.969600   1.250850  -2.167980 -44.990000  -0.003890  -0.007048 -29.963300   0.002827  -0.002514  11.882600   2.280080   5.623920  69.872200  11.064900  -1.815540   3.919090  -8.743640  11.048600 -13.833000 -18.116700   3.777400 -37.044100  30.717400  59.333900  33.927600   0.008785  -0.009306  11.963800   0.003372  -0.006604  29.757100   0.487872   0.852940  24.350000  -0.004776   0.005587  17.045000  -0.003264   0.004732  27.882800  -0.776462  -1.467520  31.312000  -0.008645   0.005994  20.853800  -0.003284   0.005026  27.882200  -3.284150  -6.179990  32.398000   0.002306  -0.001841  21.577100  -0.005791  -0.001722  39.000400  -4.415810  -5.431320  58.815400  -0.000485  -0.002170  39.171000  -0.000429  -0.001499   0.295697   2.508810   1.968240   0.814857   1.345050  11.000700  -5.824480  -4.073250   4.164200   0.000000   0.000000   0.000000   3.246810   1.765360  -7.243210  -1.364880   1.812610  -9.037430 -10.816100   0.960284   2.343900  -0.000000   0.000000   0.000000
  0.137437  90.072600  -0.863276  -0.746218  -1.732640  -2.771720  -0.825065   2.553610  -0.570308  -1.626520   5.115080  -1.105300   2.647780  -0.527726   0.032224   4.351930  -1.063070   4.520310  -3.807740  -2.785460   5.899840 -71.128100  19.374800   0.304996  -3.026820  -3.573920 -15.080900  13.121000  -0.864464   9.844500  37.871400  18.738300 -56.817200 -21.631600   0.000038   0.001688  -5.815770   0.005206  -0.002028 -31.210900   9.499710 -15.237300 -26.578200  -0.000754  -0.004082 -18.604800   0.000057  -0.004989 -28.723600   1.781710  -3.246130 -41.433400  -0.001673  -0.005164 -27.594600   0.003560  -0.001976 -27.805600   1.728980  -3.274490 -31.106600  -0.002035  -0.007675 -20.717000   0.002306  -0.003761 -29.971400   1.251610  -2.167270 -44.992700  -0.003901  -0.007040 -29.965100   0.002842  -0.002521  11.868700   2.169900   5.579410  69.915600  11.741900  -1.600240   3.890180  -8.847000  10.720300 -13.798500 -17.931800   3.682170 -36.953700  30.744000  59.561500  34.012600   0.008773  -0.009289  12.006300   0.003332  -0.006628  29.817900   0.503855   0.878739  24.400100  -0.004748   0.005524  17.080000  -0.003299   0.004683  27.882400  -0.755706  -1.428210  31.307400  -0.008561   0.006011  20.850700  -0.003328   0.004907  27.894600  -3.272080  -6.154310  32.478100   0.002365  -0.001911  21.630500  -0.005702  -0.001779  38.992400  -4.397130  -5.410130  58.801100  -0.000452  -0.002251  39.161500  -0.000469  -0.001546   0.302234   2.539370   1.968370   0.806544   1.353180  11.001800  -5.822540  -4.073670   4.186660  -0.000000   0.000000  -0.000000   3.256510   1.810640  -7.230650  -1.371710   1.796150  -9.026480 -10.836800   0.977369   2.334640  -0.000000   0.000000   0.000000
